<?xml version="1.0" standalone="no"?>
<!DOCTYPE svg PUBLIC "-//W3C//DTD SVG 20010904//EN"
 "http://www.w3.org/TR/2001/REC-SVG-20010904/DTD/svg10.dtd">
<svg version="1.0" xmlns="http://www.w3.org/2000/svg"
 width="724.000000pt" height="724.000000pt" viewBox="0 0 724.000000 724.000000"
 preserveAspectRatio="xMidYMid meet">
<metadata>
Created by potrace 1.14, written by Peter Selinger 2001-2017
</metadata>
<g transform="translate(0.000000,724.000000) scale(0.100000,-0.100000)"
fill="#000000" stroke="none">
<path d="M4135 6910 c-3 -5 -17 -10 -30 -10 -14 0 -34 -13 -51 -32 -15 -18
-31 -32 -36 -30 -5 1 -7 -2 -4 -7 3 -5 -9 -27 -26 -49 -18 -22 -44 -55 -58
-74 -14 -18 -35 -43 -47 -55 -12 -13 -20 -23 -18 -23 2 0 -13 -17 -33 -38 -20
-21 -50 -58 -67 -83 -57 -85 -54 -84 -88 -36 -49 69 -159 177 -197 194 -28 12
-58 13 -150 8 -63 -3 -145 -8 -182 -10 l-68 -3 -20 46 c-35 79 -62 112 -92
112 -14 0 -28 -4 -30 -10 -2 -5 -44 -9 -98 -9 -52 1 -120 2 -152 2 -45 1 -64
-4 -95 -25 -73 -49 -120 -103 -163 -188 -12 -25 -27 -48 -32 -51 -5 -3 -9 -9
-8 -13 2 -10 -50 -148 -67 -174 -13 -22 -23 -52 -25 -78 -1 -7 -32 -10 -87
-10 -83 1 -87 0 -118 -30 -18 -17 -52 -37 -75 -44 -24 -7 -47 -17 -52 -22 -6
-4 -18 -8 -29 -8 -10 0 -15 -5 -12 -10 4 -7 -2 -9 -17 -5 -16 4 -32 -3 -57
-25 -18 -16 -30 -30 -25 -30 4 0 -1 -6 -12 -14 -10 -8 -19 -18 -20 -23 0 -4
-6 -21 -13 -38 -33 -76 -41 -112 -41 -174 0 -141 52 -381 124 -573 27 -71 30
-88 17 -82 -9 3 -27 9 -41 12 -14 2 -30 8 -36 13 -13 10 -107 36 -199 55 -132
27 -331 9 -373 -32 -7 -8 -18 -12 -23 -9 -5 4 -9 3 -9 -2 0 -4 -23 -21 -50
-38 -27 -16 -50 -33 -50 -36 0 -3 -22 -29 -50 -57 -27 -28 -50 -55 -50 -60 0
-4 -12 -20 -27 -34 -25 -22 -35 -25 -85 -22 -32 2 -60 -1 -63 -6 -3 -6 -18
-10 -33 -10 -15 0 -56 -11 -92 -24 -110 -40 -187 -135 -199 -248 -1 -4 -7 -13
-15 -20 -17 -18 -46 -73 -46 -89 0 -6 -13 -34 -30 -61 -16 -26 -30 -58 -30
-70 0 -14 36 -57 104 -124 l104 -103 -59 -59 c-34 -33 -59 -68 -59 -79 0 -12
16 -33 37 -49 20 -16 51 -43 67 -59 17 -17 60 -55 96 -85 35 -30 74 -65 87
-77 12 -12 36 -30 53 -39 16 -10 30 -22 30 -26 0 -4 5 -8 10 -8 11 0 106 -68
144 -102 11 -10 26 -18 33 -18 7 0 13 -4 13 -10 0 -5 4 -10 9 -10 5 0 38 -17
72 -38 35 -21 76 -44 92 -52 15 -7 26 -18 24 -24 -5 -14 -58 -44 -79 -45 -10
-1 -18 -5 -18 -11 0 -5 -9 -10 -20 -10 -11 0 -20 -4 -20 -10 0 -5 -7 -10 -15
-10 -8 0 -23 -7 -32 -15 -10 -8 -47 -37 -83 -65 -90 -71 -293 -270 -275 -270
3 0 -6 -12 -20 -27 -14 -15 -25 -31 -25 -35 0 -3 -6 -13 -14 -20 -39 -40 -96
-186 -96 -249 0 -43 22 -57 92 -61 27 -2 48 -6 48 -10 0 -3 21 -8 48 -11 26
-3 72 -11 102 -17 121 -26 137 -29 180 -40 25 -6 59 -14 75 -16 17 -3 39 -9
50 -14 11 -5 36 -11 55 -15 19 -3 50 -8 68 -12 18 -3 34 -9 37 -13 3 -4 -7
-39 -21 -76 -14 -38 -30 -86 -35 -107 -5 -21 -20 -59 -34 -85 -23 -46 -48
-123 -66 -209 -4 -23 -14 -57 -22 -75 -25 -60 -6 -98 50 -98 19 0 32 3 30 8
-3 4 68 8 157 10 161 3 198 6 311 23 33 5 92 12 130 15 39 2 89 9 112 14 23 6
55 10 72 10 35 0 35 8 -4 -170 -22 -102 -28 -152 -29 -275 -1 -202 8 -276 50
-403 15 -45 42 -103 53 -112 3 -3 17 -21 31 -40 29 -41 75 -94 110 -126 59
-54 86 -74 97 -74 6 0 13 -5 15 -11 4 -12 208 -22 224 -11 14 11 49 63 74 112
12 25 26 47 30 50 3 3 26 40 49 82 23 43 46 78 51 78 5 0 17 -12 27 -28 10
-15 20 -29 24 -32 3 -3 19 -29 34 -59 15 -30 46 -75 69 -100 73 -80 214 -221
220 -221 4 0 17 -10 30 -23 38 -36 66 -57 76 -57 6 0 10 -4 10 -10 0 -5 9 -10
19 -10 11 0 21 -3 23 -8 4 -10 109 -42 140 -42 31 0 59 24 83 70 10 19 23 38
29 42 6 4 8 8 3 8 -4 0 6 27 23 60 17 33 27 60 23 60 -4 0 -2 5 5 12 7 7 12
22 12 35 0 13 4 23 8 23 5 0 9 6 10 13 2 20 7 41 14 52 3 6 16 51 28 102 l23
92 61 -41 c34 -23 63 -45 64 -50 2 -4 9 -8 17 -8 7 0 18 -7 25 -15 7 -8 24
-21 39 -28 35 -18 75 -41 81 -47 3 -3 18 -12 35 -20 29 -15 40 -23 92 -67 14
-12 38 -27 52 -35 14 -7 35 -21 45 -31 23 -20 76 -23 94 -5 7 7 12 22 12 34 0
31 27 37 60 14 15 -11 32 -20 37 -20 5 0 15 -9 23 -19 7 -11 17 -18 21 -16 4
3 9 -2 13 -10 3 -8 11 -15 18 -15 7 0 29 -14 48 -30 19 -17 47 -36 63 -43 15
-6 27 -14 27 -18 0 -3 16 -11 35 -19 19 -8 35 -17 35 -22 0 -4 7 -8 15 -8 8 0
15 -4 15 -10 0 -5 7 -10 15 -10 8 0 15 -4 15 -10 0 -5 7 -10 15 -10 8 0 15 -4
15 -9 0 -5 8 -11 18 -15 17 -6 68 -41 107 -74 28 -24 89 -45 93 -32 2 5 8 10
14 10 29 0 71 82 86 170 34 193 36 236 36 545 -1 312 -2 323 -28 440 -20 86
-39 141 -68 193 -22 40 -37 76 -34 79 8 8 146 22 286 28 189 9 382 26 407 36
13 5 45 9 70 9 30 0 55 7 76 22 18 12 33 22 35 23 1 1 -7 30 -18 65 -11 34
-20 64 -20 65 0 5 139 15 255 18 115 4 256 22 290 36 11 5 41 16 68 26 49 17
107 66 107 91 0 8 5 14 10 14 6 0 15 11 20 25 13 34 -12 122 -57 204 -80 143
-83 154 -43 146 34 -6 54 47 55 140 0 74 -3 88 -38 157 -20 42 -50 90 -66 107
-16 17 -27 31 -24 31 12 0 -90 135 -154 205 -16 16 -38 43 -51 60 -19 26 -150
164 -155 163 -12 -1 -55 27 -51 33 3 5 -4 9 -15 9 -12 0 -21 5 -21 10 0 6 -11
10 -25 10 -14 0 -25 4 -25 9 0 9 -10 12 -139 35 -45 8 -85 17 -88 20 -3 2 2
15 11 28 9 12 16 19 16 14 0 -8 41 25 125 103 63 58 212 189 245 216 14 11 66
71 115 133 78 97 103 121 190 179 55 36 102 70 103 75 2 4 9 8 16 8 6 0 18 9
26 20 8 11 20 20 27 20 7 0 13 5 13 10 0 6 7 10 15 10 8 0 15 5 15 10 0 6 4
10 8 10 9 0 74 55 128 108 19 17 39 32 45 32 7 0 10 2 7 5 -3 3 10 22 28 42
18 20 31 40 29 44 -3 4 -1 9 4 11 5 1 11 30 15 64 5 52 3 64 -14 84 -10 12
-22 31 -25 41 -4 12 -16 19 -30 19 -22 0 -24 3 -18 30 5 28 3 30 -24 30 -17 0
-34 8 -43 20 -8 11 -22 20 -30 20 -9 0 -26 9 -38 20 -12 11 -28 20 -36 20 -8
0 -18 5 -21 10 -3 6 -22 10 -41 10 -19 0 -34 5 -34 10 0 6 -9 10 -20 10 -34 0
-25 45 15 81 47 43 46 74 -3 128 -20 22 -43 41 -49 41 -6 0 -13 3 -15 8 -3 6
-76 41 -133 62 -38 15 -100 30 -130 32 -16 2 -33 7 -36 11 -3 4 -81 8 -173 8
-152 -1 -219 -8 -265 -30 -92 -44 -157 -77 -161 -81 -10 -10 -65 -41 -82 -47
-10 -3 -18 -9 -18 -14 0 -5 -7 -9 -15 -9 -8 0 -15 -3 -15 -7 0 -5 -25 -19 -55
-33 -30 -14 -55 -28 -55 -32 0 -5 -7 -8 -15 -8 -8 0 -15 -4 -15 -10 0 -5 -7
-10 -16 -10 -8 0 -13 -4 -10 -8 2 -4 -4 -8 -15 -8 -10 0 -19 5 -19 11 0 22 33
121 61 188 36 81 66 279 85 562 3 55 8 103 10 107 3 4 0 9 -6 13 -5 3 -7 28
-4 58 11 97 6 157 -13 157 -7 0 -13 5 -13 10 0 6 -9 10 -21 10 -20 0 -21 4
-16 73 3 39 8 89 12 110 4 20 3 37 -3 37 -5 0 -9 6 -9 13 -9 152 -19 219 -40
262 -20 39 -64 86 -75 79 -4 -3 -8 0 -8 5 0 6 -9 11 -20 11 -10 0 -23 7 -28
17 -11 19 -83 20 -142 2 -107 -32 -262 -123 -243 -143 4 -3 0 -6 -8 -6 -8 0
-20 -9 -27 -20 -7 -11 -20 -20 -29 -20 -9 0 -14 -3 -10 -6 8 -9 -48 -54 -67
-54 -9 0 -15 -5 -14 -11 2 -6 -6 -16 -17 -22 -11 -7 -27 -20 -36 -29 -9 -10
-21 -18 -28 -18 -6 0 -10 -3 -9 -7 2 -5 0 -8 -4 -8 -3 0 -39 -33 -79 -72 -40
-40 -76 -73 -79 -73 -4 0 -13 42 -20 93 -12 91 -14 107 -24 157 -2 14 -14 84
-26 155 -25 155 -33 175 -71 175 -15 0 -31 -4 -34 -10z m-1015 -3494 c0 -3 -4
-8 -10 -11 -5 -3 -10 -1 -10 4 0 6 5 11 10 11 6 0 10 -2 10 -4z"/>
</g>
</svg>
